<svg width="43" height="43" viewBox="0 0 43 43" fill="none" xmlns="http://www.w3.org/2000/svg">
<g clip-path="url(#clip0)">
<path d="M12.3589 0.782959C12.3589 0.782959 14.1004 0.956751 14.7991 2.69646C14.7991 2.69646 16.7144 7.22221 18.4541 11.5742C20.9983 17.5404 24.2233 25.2177 26.8212 31.4222H2.09085C0.696937 31.4222 0.00177002 30.5515 0.00177002 30.5515C1.3939 32.9882 5.39827 40.6493 5.39827 40.6493C6.09344 41.5201 6.7904 42.0397 7.83494 42.0397C10.0996 42.0397 13.5826 39.7786 13.5826 39.7786L26.8571 31.5029C29.3869 37.5444 31.3362 42.217 31.3362 42.217H43C43.1738 42.0432 26.2891 2.00129 26.1153 1.82571C25.9415 1.65192 25.5921 0.782959 24.3738 0.782959H12.3589ZM11.8393 2.35067C10.7948 2.35067 10.4454 3.21963 10.2716 3.39342L0.698728 26.0257C0.177353 27.5917 0.524937 29.507 3.31098 29.507H10.7948L17.4114 13.6668C16.1541 10.5247 14.8772 7.39038 13.5808 4.26417C13.407 3.74279 12.8839 2.35067 11.8393 2.35067Z" fill="white"/>
</g>
<defs>
<clipPath id="clip0">
<rect width="43" height="43" fill="white"/>
</clipPath>
</defs>
</svg>
