<svg width="43" height="43" viewBox="0 0 43 43" fill="none" xmlns="http://www.w3.org/2000/svg">
<path d="M41.3203 18.0063C39.7078 8.53281 31.4438 1.34375 21.5 1.34375C11.5562 1.34375 3.29219 8.53281 1.67969 18.0063L21.5 8.0625L41.3203 18.0063Z" fill="#699635"/>
<path d="M1.67969 24.9938C3.29219 34.4672 11.5562 41.6563 21.5 41.6563C31.4438 41.6563 39.7078 34.4672 41.3203 24.9938L21.5 34.9375L1.67969 24.9938Z" fill="#699635"/>
<path d="M21.5 8.0625L1.67969 18.0062C1.47812 19.1484 1.34375 20.2906 1.34375 21.5C1.34375 22.7094 1.47812 23.8516 1.67969 24.9937L21.5 34.9375L41.3203 24.9937C41.5219 23.8516 41.6562 22.7094 41.6562 21.5C41.6562 20.2906 41.5219 19.1484 41.3203 18.0062L21.5 8.0625Z" fill="#FFE62E"/>
<path d="M17.4688 19.0813C15.3187 19.0813 13.3031 19.5516 11.4891 20.3579C11.4219 20.761 11.4219 21.0969 11.4219 21.5C11.4219 27.0766 15.9234 31.5782 21.5 31.5782C25.2625 31.5782 28.5547 29.4954 30.3016 26.4719C27.8156 22.1047 22.9781 19.0813 17.4688 19.0813Z" fill="#428BC1"/>
<path d="M31.4438 23.1125C31.5109 22.575 31.5781 22.0375 31.5781 21.5C31.5781 15.9234 27.0766 11.4219 21.5 11.4219C17.5359 11.4219 14.1094 13.7062 12.4297 17.0656C14.0422 16.5953 15.7219 16.3266 17.4688 16.3266C23.1797 16.3266 28.2187 19.0141 31.4438 23.1125Z" fill="#428BC1"/>
<path d="M17.4687 16.3265C15.7219 16.3265 14.0422 16.5953 12.4297 17.0656C11.9594 18.0734 11.6234 19.1484 11.4891 20.3578C13.3031 19.5515 15.3187 19.0812 17.4687 19.0812C22.9781 19.0812 27.8156 22.0375 30.3016 26.4047C30.9062 25.3968 31.2422 24.2547 31.4437 23.1125C28.2187 19.014 23.1797 16.3265 17.4687 16.3265Z" fill="white"/>
<path d="M14.7812 22.1719C15.1523 22.1719 15.4531 21.8711 15.4531 21.5C15.4531 21.1289 15.1523 20.8281 14.7812 20.8281C14.4102 20.8281 14.1094 21.1289 14.1094 21.5C14.1094 21.8711 14.4102 22.1719 14.7812 22.1719Z" fill="white"/>
<path d="M17.4688 26.2031C17.8398 26.2031 18.1406 25.9023 18.1406 25.5312C18.1406 25.1602 17.8398 24.8594 17.4688 24.8594C17.0977 24.8594 16.7969 25.1602 16.7969 25.5312C16.7969 25.9023 17.0977 26.2031 17.4688 26.2031Z" fill="white"/>
<path d="M21.5 26.2031C21.8711 26.2031 22.1719 25.9023 22.1719 25.5312C22.1719 25.1602 21.8711 24.8594 21.5 24.8594C21.1289 24.8594 20.8281 25.1602 20.8281 25.5312C20.8281 25.9023 21.1289 26.2031 21.5 26.2031Z" fill="white"/>
<path d="M21.5 28.8906C21.8711 28.8906 22.1719 28.5898 22.1719 28.2188C22.1719 27.8477 21.8711 27.5469 21.5 27.5469C21.1289 27.5469 20.8281 27.8477 20.8281 28.2188C20.8281 28.5898 21.1289 28.8906 21.5 28.8906Z" fill="white"/>
<path d="M26.875 26.2031C27.2461 26.2031 27.5469 25.9023 27.5469 25.5312C27.5469 25.1602 27.2461 24.8594 26.875 24.8594C26.5039 24.8594 26.2031 25.1602 26.2031 25.5312C26.2031 25.9023 26.5039 26.2031 26.875 26.2031Z" fill="white"/>
<path d="M26.875 28.8906C27.2461 28.8906 27.5469 28.5898 27.5469 28.2188C27.5469 27.8477 27.2461 27.5469 26.875 27.5469C26.5039 27.5469 26.2031 27.8477 26.2031 28.2188C26.2031 28.5898 26.5039 28.8906 26.875 28.8906Z" fill="white"/>
<path d="M24.1875 27.5469C24.5586 27.5469 24.8594 27.2461 24.8594 26.875C24.8594 26.5039 24.5586 26.2031 24.1875 26.2031C23.8164 26.2031 23.5156 26.5039 23.5156 26.875C23.5156 27.2461 23.8164 27.5469 24.1875 27.5469Z" fill="white"/>
<path d="M14.7812 24.8594C15.1523 24.8594 15.4531 24.5586 15.4531 24.1875C15.4531 23.8164 15.1523 23.5156 14.7812 23.5156C14.4102 23.5156 14.1094 23.8164 14.1094 24.1875C14.1094 24.5586 14.4102 24.8594 14.7812 24.8594Z" fill="white"/>
</svg>
