<svg width="44" height="44" viewBox="0 0 44 44" fill="none" xmlns="http://www.w3.org/2000/svg">
<path d="M22 0C9.84638 0 0 9.84638 0 22C0 34.1536 9.84638 44 22 44C34.1536 44 44 34.1536 44 22C44 9.84638 34.1536 0 22 0ZM12.7614 14.08C14.1433 14.08 15.2185 15.0879 15.3395 16.2786C15.4701 17.3525 15.0246 18.2916 13.8366 18.8568C13.2055 19.1716 12.9552 19.1716 12.826 18.9846C12.7614 18.8568 12.826 18.7358 12.9539 18.6051C14.0869 17.6688 14.0869 16.9097 13.9562 15.8428C13.8916 15.1484 13.3911 14.7098 12.8892 14.7098C10.6837 14.7098 7.54738 19.6089 7.98325 23.1963C8.17712 24.5781 8.99387 26.2116 10.7484 26.2116C11.3149 26.2116 11.946 26.0246 12.5097 25.7758C13.4269 25.2876 13.9783 24.9164 14.5228 24.3072C14.3866 22.6806 15.8111 20.5549 17.9163 20.5549C18.8622 20.5549 19.6144 20.9344 19.6776 21.6287C19.8 22.5679 18.9832 22.6958 18.733 22.6958C18.4814 22.6958 18.0386 22.6311 18.0386 22.3809C17.9823 22.1293 18.6038 22.253 18.546 21.6865C18.4814 21.307 18.1019 21.186 17.7306 21.186C16.4051 21.186 15.653 23.012 15.84 24.1354C15.9046 24.6427 16.1535 25.146 16.6636 25.146C17.0363 25.146 17.6027 24.5795 17.787 23.7641C17.9149 23.1976 18.4181 22.8181 18.8609 22.8181C19.0479 22.8181 19.1689 22.8827 19.2335 23.133V23.3846C19.1771 23.6362 18.9819 24.3952 19.0479 24.5795C19.0479 24.7101 19.1125 24.8944 19.3614 24.8944C19.5264 24.8944 20.1575 24.5644 20.7873 24.0487C20.9949 22.9666 21.2451 21.6714 21.2451 21.5641C21.3097 21.12 21.4967 20.6828 22.3768 20.6828C22.5693 20.6828 22.6916 20.7474 22.7562 20.9976V21.2493L22.5046 22.3809C23.3228 21.3139 24.5176 20.5618 25.2698 20.5618C25.5846 20.5618 25.8363 20.7474 25.8363 21.0623C25.8363 21.2493 25.8363 21.5641 25.7056 21.8804C25.4567 22.5679 25.1405 23.6417 24.9535 24.5795C24.9535 24.8311 25.0181 25.0814 25.333 25.0814C25.6479 25.0814 26.587 24.7087 27.3391 23.6995L27.3542 23.6926C27.3542 23.5703 27.3391 23.4492 27.3391 23.3282C27.3391 22.5693 27.4037 21.9464 27.533 21.5022C27.6609 21.0004 28.2851 20.5631 28.6646 20.5631C28.8503 20.5631 29.0441 20.6841 29.0441 20.8711C29.0441 20.9357 29.0441 21.0636 28.9795 21.1228C28.7279 21.9464 28.534 22.6971 28.534 23.4493C28.534 23.8934 28.6 24.5163 28.7279 24.8958C28.7279 24.9604 28.7843 25.0236 28.8489 25.0236C28.9795 25.0236 29.8595 24.2083 30.4824 23.133C29.9159 22.7604 29.601 22.1306 29.601 21.3785C29.601 20.0544 30.426 19.3655 31.1781 19.3655C31.8092 19.3655 32.3097 19.8041 32.3097 20.6841C32.3097 21.2506 32.1227 21.8818 31.8093 22.4455H31.9949C32.3964 22.4606 32.791 22.2956 33.0619 22.0096C33.1217 21.9139 33.2096 21.839 33.3135 21.7951C33.9295 21.0141 34.8315 20.4353 35.8985 20.4353C36.7785 20.4353 37.5884 20.8147 37.653 21.5022C37.7809 22.4469 36.9586 22.6339 36.707 22.6339C36.4581 22.6339 36.014 22.5693 36.014 22.319C36.014 22.0688 36.5791 22.1911 36.5214 21.6315C36.4568 21.252 36.0773 21.1241 35.6978 21.1241C34.4437 21.1241 33.6284 22.7563 33.8126 24.0817C33.8773 24.5823 34.1275 25.1488 34.6308 25.1488C35.0103 25.1488 35.5754 24.5823 35.8256 23.7669C35.9466 23.2664 36.4567 22.8209 36.8926 22.8209C37.0851 22.8209 37.2075 22.8855 37.2721 23.1357C37.2721 23.2664 37.2721 23.5153 37.0205 24.3334C36.7056 24.8985 36.7056 25.2134 36.7716 25.465C36.828 25.9655 37.0796 26.345 37.3368 26.532C37.3827 26.5903 37.4236 26.6524 37.4591 26.7176C37.4591 26.8482 37.3931 26.9761 37.2075 26.9761C37.1429 26.9761 37.0851 26.9761 37.0205 26.9115C36.0759 26.532 35.6964 25.9009 35.574 25.2711C35.1945 25.7153 34.7586 25.9655 34.2499 25.9655C33.4318 25.9655 32.6232 25.2134 32.4954 24.2674C32.4563 23.8662 32.5027 23.4613 32.6315 23.0794C32.2589 23.3159 31.8574 23.452 31.4861 23.452H31.1781C30.3545 24.6469 29.4731 25.465 28.8503 25.8376C28.6357 25.952 28.3987 26.0177 28.1559 26.0301C28.0349 26.0301 27.8424 25.9655 27.7832 25.8376C27.6059 25.5585 27.4972 25.1213 27.4257 24.6208C26.5444 25.5791 25.3261 26.0948 24.7624 26.0948C24.1313 26.0948 23.76 25.7153 23.6954 25.0869V24.3994C23.881 23.0175 24.3898 22.1939 24.3898 21.9422C24.3861 21.9091 24.3711 21.8783 24.3473 21.855C24.3234 21.8317 24.2923 21.8173 24.2591 21.8144C23.8232 21.8144 22.3767 23.3255 22.1251 24.3347L21.9326 25.1501C21.8103 25.7153 21.2451 26.0948 20.8656 26.0948C20.6786 26.0948 20.5508 26.0301 20.493 25.7812V25.5296L20.5714 25.1006C19.7753 25.6657 18.9805 26.0301 18.601 26.0301C18.0359 26.0301 17.721 25.7153 17.6646 25.2711C17.2851 25.7812 16.8465 26.0301 16.2827 26.0301C15.6296 26.0301 15.0013 25.586 14.7001 24.9425C14.2478 25.4499 13.739 25.9586 13.1381 26.345C12.2581 26.9115 11.2557 27.3474 10.0581 27.3474C8.99113 27.3474 8.0465 26.7809 7.54462 26.2804C6.78562 25.586 6.34975 24.519 6.28513 23.5152C5.9125 20.4366 7.79625 16.4753 10.681 14.7139C11.3754 14.3344 12.0711 14.0855 12.7586 14.0855L12.7614 14.08ZM30.6721 20.1176C30.4865 20.1176 30.3586 20.4325 30.3586 20.7391C30.3586 21.2493 30.6075 21.813 30.9237 22.1292C31.0498 21.7852 31.1154 21.4218 31.1176 21.0554C31.1176 20.4339 30.866 20.119 30.6721 20.119V20.1176Z" fill="white"/>
</svg>
