<svg width="45" height="45" viewBox="0 0 45 45" fill="none" xmlns="http://www.w3.org/2000/svg">
<path d="M33.75 4.64062C30.4453 2.60156 26.6484 1.40625 22.5 1.40625V4.64062H33.75Z" fill="#ED4C5C"/>
<path d="M22.5 7.875H37.6875C36.4922 6.67969 35.1562 5.55469 33.75 4.64062H22.5V7.875Z" fill="white"/>
<path d="M22.5 11.1094H40.2891C39.5156 9.91406 38.6719 8.85938 37.7578 7.875H22.5V11.1094Z" fill="#ED4C5C"/>
<path d="M22.5 14.3437H41.9766C41.4844 13.2187 40.9219 12.0937 40.2891 11.1094H22.5V14.3437Z" fill="white"/>
<path d="M22.5 17.5781H43.0313C42.75 16.4531 42.3984 15.3984 41.9766 14.3438H22.5V17.5781Z" fill="#ED4C5C"/>
<path d="M22.5 20.8828H43.5234C43.4531 19.7578 43.2422 18.7031 43.0313 17.6484H22.5V20.8828Z" fill="white"/>
<path d="M43.5234 20.8828H22.5V22.5H1.40625C1.40625 23.0625 1.40625 23.5547 1.47656 24.1172H43.5234C43.5938 23.5547 43.5938 23.0625 43.5938 22.5C43.5938 21.9375 43.5938 21.375 43.5234 20.8828Z" fill="#ED4C5C"/>
<path d="M1.96875 27.3516H43.0312C43.3125 26.2969 43.4531 25.2422 43.5234 24.1172H1.47656C1.54687 25.1719 1.6875 26.2969 1.96875 27.3516Z" fill="white"/>
<path d="M3.02344 30.5859H41.9766C42.3984 29.5312 42.75 28.4766 43.0312 27.3516H1.96875C2.25 28.4766 2.60156 29.5312 3.02344 30.5859Z" fill="#ED4C5C"/>
<path d="M4.71094 33.8203H40.2891C40.9219 32.7656 41.4844 31.7109 41.9766 30.5859H3.02344C3.51562 31.7109 4.07812 32.7656 4.71094 33.8203Z" fill="white"/>
<path d="M7.24219 37.0547H37.7578C38.6719 36.0703 39.5859 34.9453 40.2891 33.8203H4.71094C5.41406 35.0156 6.32813 36.0703 7.24219 37.0547Z" fill="#ED4C5C"/>
<path d="M11.1797 40.2891H33.8203C35.2969 39.375 36.5625 38.25 37.7578 37.0547H7.24219C8.4375 38.3203 9.77344 39.375 11.1797 40.2891Z" fill="white"/>
<path d="M22.5 43.5938C26.6484 43.5938 30.5156 42.3984 33.8203 40.2891H11.1797C14.4844 42.3984 18.3516 43.5938 22.5 43.5938Z" fill="#ED4C5C"/>
<path d="M11.25 4.64062C9.77344 5.55469 8.4375 6.67969 7.24219 7.875C6.25781 8.85938 5.41406 9.98438 4.71094 11.1094C4.07812 12.1641 3.44531 13.2188 3.02344 14.3438C2.60156 15.3984 2.25 16.4531 1.96875 17.5781C1.6875 18.6328 1.54687 19.6875 1.47656 20.8125C1.40625 21.375 1.40625 21.9375 1.40625 22.5H22.5V1.40625C18.3516 1.40625 14.5547 2.60156 11.25 4.64062Z" fill="#428BC1"/>
<path d="M18.2085 1.875L18.5661 2.94788H19.639L18.7807 3.66314L19.0668 4.73603L18.2085 4.09229L17.3502 4.73603L17.6363 3.66314L16.7779 2.94788H17.8508L18.2085 1.875Z" fill="white"/>
<path d="M21.0695 6.1665L21.4271 7.23939H22.5L21.6417 7.95464L21.9278 9.02753L21.0695 8.3838L20.2112 9.02753L20.4973 7.95464L19.639 7.23939H20.7119L21.0695 6.1665Z" fill="white"/>
<path d="M15.3474 6.1665L15.7051 7.23939H16.778L15.9197 7.95464L16.2058 9.02753L15.3474 8.3838L14.4891 9.02753L14.7752 7.95464L13.9169 7.23939H14.9898L15.3474 6.1665Z" fill="white"/>
<path d="M18.2085 10.4581L18.5661 11.531H19.639L18.7807 12.2463L19.0668 13.3192L18.2085 12.6754L17.3502 13.3192L17.6363 12.2463L16.7779 11.531H17.8508L18.2085 10.4581Z" fill="white"/>
<path d="M12.4864 10.4581L12.844 11.531H13.9169L13.0586 12.2463L13.3447 13.3192L12.4864 12.6754L11.6281 13.3192L11.9142 12.2463L11.0559 11.531H12.1288L12.4864 10.4581Z" fill="white"/>
<path d="M6.76437 10.4581L7.122 11.531H8.19488L7.33657 12.2463L7.62268 13.3192L6.76437 12.6754L5.90606 13.3192L6.19216 12.2463L5.33385 11.531H6.40674L6.76437 10.4581Z" fill="white"/>
<path d="M21.0695 14.7496L21.4271 15.8225H22.5L21.6417 16.5378L21.9278 17.6107L21.0695 16.9669L20.2112 17.6107L20.4973 16.5378L19.639 15.8225H20.7119L21.0695 14.7496Z" fill="white"/>
<path d="M15.3474 14.7496L15.7051 15.8225H16.778L15.9197 16.5378L16.2058 17.6107L15.3474 16.9669L14.4891 17.6107L14.7752 16.5378L13.9169 15.8225H14.9898L15.3474 14.7496Z" fill="white"/>
<path d="M9.62539 14.7496L9.98302 15.8225H11.0559L10.1976 16.5378L10.4837 17.6107L9.62539 16.9669L8.76708 17.6107L9.05318 16.5378L8.19488 15.8225H9.26776L9.62539 14.7496Z" fill="white"/>
<path d="M18.2085 19.0411L18.5661 20.114H19.639L18.7807 20.8293L19.0668 21.9022L18.2085 21.2584L17.3502 21.9022L17.6363 20.8293L16.7779 20.114H17.8508L18.2085 19.0411Z" fill="white"/>
<path d="M12.4864 19.0411L12.844 20.114H13.9169L13.0586 20.8293L13.3447 21.9022L12.4864 21.2584L11.6281 21.9022L11.9142 20.8293L11.0559 20.114H12.1288L12.4864 19.0411Z" fill="white"/>
<path d="M6.76437 19.0411L7.122 20.114H8.19488L7.33657 20.8293L7.62268 21.9022L6.76437 21.2584L5.90606 21.9022L6.19216 20.8293L5.33385 20.114H6.40674L6.76437 19.0411Z" fill="white"/>
<path d="M8.76709 9.02753L9.6254 8.3838L10.4837 9.02753L10.1261 7.95464L10.9844 7.23939H9.9115L9.6254 6.1665L9.26777 7.23939H8.26641L9.12472 7.88312L8.76709 9.02753Z" fill="white"/>
<path d="M3.04504 17.6107L3.90334 16.9669L4.76165 17.6107L4.40402 16.5378L5.26233 15.8225H4.26097L3.90334 14.7496L3.54572 15.8225H2.83046C2.83046 15.894 2.75893 15.9656 2.75893 16.0371L3.33114 16.4662L3.04504 17.6107Z" fill="white"/>
</svg>
