<svg width="37" height="37" viewBox="0 0 37 37" fill="none" xmlns="http://www.w3.org/2000/svg">
<g clip-path="url(#clip0)">
<path d="M37 28.6565C36.4615 28.8602 35.8671 28.8597 35.3289 28.6553C34.7907 28.4508 34.3459 28.0564 34.0785 27.5465L28.7598 20.1912L27.989 19.1629L21.8177 27.5558C21.5664 28.0442 21.1457 28.4245 20.6344 28.6254C20.1231 28.8262 19.5562 28.834 19.0396 28.6473L26.9915 17.9789L19.5946 8.34197C20.1264 8.15031 20.7081 8.14776 21.2416 8.33478C21.7752 8.52179 22.2279 8.88694 22.5237 9.36872L28.0367 16.815L33.5806 9.39956C33.8338 8.91977 34.2546 8.54977 34.7628 8.3599C35.271 8.17003 35.8313 8.17353 36.3371 8.36972L33.4665 12.1792L29.5784 17.2405C29.4704 17.3368 29.384 17.4548 29.3249 17.5869C29.2657 17.7189 29.2351 17.862 29.2351 18.0067C29.2351 18.1514 29.2657 18.2944 29.3249 18.4265C29.384 18.5585 29.4704 18.6766 29.5784 18.7729L36.9846 28.6581L37 28.6565ZM0.00307894 17.8463L0.650579 14.6474C2.42966 8.32193 9.68166 5.69031 14.6705 9.60614C17.592 11.9017 18.3212 15.1515 18.1778 18.8145H1.7205C1.45379 25.3558 6.17437 29.3056 12.21 27.2875C13.1884 26.9353 14.0642 26.3459 14.7589 25.5721C15.4536 24.7983 15.9455 23.8643 16.1906 22.8537C16.5097 21.8269 17.0354 21.6512 18.0005 21.9472C17.8397 23.1996 17.3969 24.3993 16.7056 25.4559C16.0143 26.5125 15.0923 27.3986 14.0091 28.0476C12.2199 29.0263 10.167 29.4142 8.14404 29.1558C6.12106 28.8975 4.23156 28.0061 2.7457 26.6092C1.27654 24.9556 0.388613 22.8668 0.217371 20.6614C0.217371 20.2991 0.0940373 19.96 0.0107873 19.6347C0.00328249 19.0391 -0.000314814 18.4435 -4.39392e-06 17.8479L0.00307894 17.8463ZM1.74054 17.4054H16.6238C16.5313 12.6633 13.5389 9.29935 9.54754 9.26852C5.10445 9.20685 1.92554 12.4968 1.72975 17.3838L1.74054 17.4054Z" fill="white"/>
</g>
<defs>
<clipPath id="clip0">
<rect width="37" height="37" fill="white"/>
</clipPath>
</defs>
</svg>
