<svg width="45" height="45" viewBox="0 0 45 45" fill="none" xmlns="http://www.w3.org/2000/svg">
<path d="M1.40625 22.5C1.40625 26.6484 2.60156 30.5156 4.64062 33.75H40.2891C42.3281 30.5156 43.5234 26.6484 43.5234 22.5C43.5234 18.3516 42.3281 14.4844 40.2891 11.25H4.64062C2.60156 14.4844 1.40625 18.3516 1.40625 22.5Z" fill="#FFCE31"/>
<path d="M40.3594 11.25C36.6328 5.34375 30.0234 1.40625 22.5 1.40625C14.9766 1.40625 8.36719 5.34375 4.64062 11.25H40.3594Z" fill="#ED4C5C"/>
<path d="M4.64062 33.75C8.36719 39.6562 14.9766 43.5938 22.5 43.5938C30.0234 43.5938 36.6328 39.6562 40.3594 33.75H4.64062Z" fill="#ED4C5C"/>
<path d="M6.46875 20.1797H8.71875V21.4453H6.46875V20.1797Z" fill="#C8B100"/>
<path d="M6.46875 29.4609H8.78906V30.6562H6.46875V29.4609Z" fill="#C8B100"/>
<path d="M6.25781 27.4922C6.04687 27.6328 5.90625 27.7734 5.90625 27.8437C5.90625 27.9141 5.97656 27.9844 6.11719 28.0547C6.25781 28.125 6.39844 28.2656 6.32813 28.4063C6.46875 28.2656 6.53906 28.125 6.53906 27.9844C6.53906 27.7734 6.39844 27.5625 6.25781 27.4922Z" fill="#ED4C5C"/>
<path d="M6.82031 21.4453H8.4375V29.4609H6.82031V21.4453Z" fill="white"/>
<path d="M10.125 24.3984C9.77344 24.2578 9.14063 24.1172 8.4375 24.1172C8.22656 24.1172 7.94531 24.1172 7.66406 24.1875C6.67969 24.3281 5.90625 24.75 5.97656 25.0312L5.625 24.2578C5.55469 23.9062 6.39844 23.4844 7.45313 23.2734C7.80469 23.2031 8.15625 23.2031 8.4375 23.2031C9.14063 23.2031 9.77344 23.2734 10.125 23.4141V24.3984Z" fill="#ED4C5C"/>
<path d="M6.82031 25.4531C6.39844 25.4531 6.04688 25.3125 6.04688 25.1016C6.04688 24.9609 6.1875 24.75 6.46875 24.6094H6.89063L6.82031 25.4531Z" fill="#ED4C5C"/>
<path d="M8.4375 24.8203C8.71875 24.8906 8.92969 24.9609 9.07031 25.0312C9.14062 25.1016 8.85937 25.3828 8.4375 25.5938V24.8203Z" fill="#ED4C5C"/>
<path d="M5.76562 27C5.69531 26.8594 6.1875 26.5781 6.82031 26.3672C7.10156 26.2969 7.3125 26.1562 7.66406 26.0156C8.50781 25.6641 9.21094 25.1719 9.07031 25.0312L9.21094 25.875C9.28125 26.0156 8.71875 26.4375 7.875 26.8594C7.59375 27 7.10156 27.2109 6.82031 27.2812C6.32812 27.4219 5.90625 27.7031 5.90625 27.7734L5.76562 27Z" fill="#ED4C5C"/>
<path d="M21.5859 20.1797H23.8359V21.4453H21.5859V20.1797Z" fill="#C8B100"/>
<path d="M21.5156 29.4609H23.8359V30.6562H21.5156V29.4609Z" fill="#C8B100"/>
<path d="M24.0469 27.4922C24.2578 27.6328 24.3984 27.7734 24.3984 27.8437C24.3984 27.9141 24.3281 27.9844 24.1875 28.0547C24.0469 28.1953 23.9062 28.4062 23.9766 28.4766C23.8359 28.3359 23.7656 28.1953 23.7656 28.0547C23.7656 27.7734 23.9063 27.5625 24.0469 27.4922Z" fill="#ED4C5C"/>
<path d="M21.8672 21.4453H23.4844V29.4609H21.8672V21.4453Z" fill="white"/>
<path d="M20.1797 24.3984C20.5312 24.2578 21.1641 24.1172 21.8672 24.1172C22.0781 24.1172 22.3594 24.1172 22.6406 24.1875C23.625 24.3281 24.3984 24.75 24.3281 25.0312L24.6797 24.1875C24.75 23.8359 23.9062 23.4141 22.8516 23.2031H21.8672C21.1641 23.2031 20.5312 23.2734 20.1797 23.4141V24.3984Z" fill="#ED4C5C"/>
<path d="M23.4844 25.4531C23.9063 25.4531 24.2578 25.3125 24.2578 25.1016C24.2578 24.9609 24.1172 24.75 23.8359 24.6094H23.4141L23.4844 25.4531Z" fill="#ED4C5C"/>
<path d="M21.8672 24.8203C21.5859 24.8906 21.375 24.9609 21.2344 25.0312C21.1641 25.1016 21.4453 25.3828 21.8672 25.5938V24.8203Z" fill="#ED4C5C"/>
<path d="M24.5391 27C24.6094 26.8594 24.1172 26.5781 23.4844 26.3672C23.2031 26.2969 22.9922 26.1563 22.6406 26.0156C21.7969 25.6641 21.0938 25.1719 21.2344 25.0312L21.0938 25.875C21.0234 26.0156 21.5859 26.4375 22.4297 26.8594C22.7109 27 23.2031 27.2109 23.4844 27.2813C23.9766 27.4219 24.3984 27.7734 24.3281 27.8438L24.5391 27Z" fill="#ED4C5C"/>
<path d="M15.1172 15.6797C16.4531 15.6797 19.1953 15.9609 20.1797 16.9453C19.125 19.4766 17.4375 18.4219 15.1172 18.4219C12.8672 18.4219 11.1094 19.4766 10.0547 16.9453C11.0391 15.9609 13.7109 15.6797 15.1172 15.6797Z" fill="#ED4C5C"/>
<path d="M18.5625 18.4922C17.7188 18 16.4531 17.9297 15.1172 17.9297C13.7813 17.9297 12.5156 18.0703 11.6719 18.4922L11.9531 19.6875C12.7266 19.8984 13.8516 20.0391 15.1172 20.0391C16.3828 20.0391 17.4375 19.8984 18.2813 19.6875L18.5625 18.4922Z" fill="#C8B100"/>
<path d="M19.7578 15.4687C19.4766 15.2578 18.9141 15.0469 18.4219 15.0469C18.2109 15.0469 18 15.0469 17.7891 15.1172C17.7891 15.1172 17.3672 14.5547 16.3828 14.5547C16.0312 14.5547 15.75 14.625 15.4687 14.7656V14.6953C15.3984 14.5547 15.2578 14.4141 15.1172 14.4141C14.9766 14.4141 14.7656 14.625 14.7656 14.7656V14.8359C14.4844 14.6953 14.2031 14.625 13.8516 14.625C12.8672 14.625 12.4453 15.2578 12.4453 15.1875C12.2344 15.1172 12.0234 15.1172 11.8125 15.1172C8.57812 15.1172 10.1953 17.2969 10.1953 17.2969L10.5469 16.875C9.77344 15.8906 10.4766 15.3281 11.8828 15.3281C12.0937 15.3281 12.2344 15.3281 12.375 15.3984C11.8828 16.1016 12.7969 16.7344 12.7969 16.7344L13.0078 16.3828C12.5156 16.0312 12.4453 14.8359 13.8516 14.8359C14.2031 14.8359 14.4844 14.9062 14.7656 15.1172C14.7656 15.1875 14.6953 16.1719 14.625 16.3125L15.1875 16.8047L15.75 16.3125C15.6797 16.1016 15.6094 15.1875 15.6094 15.1172C15.8203 14.9766 16.1719 14.8359 16.5234 14.8359C18 14.8359 18 16.0312 17.3672 16.3828L17.5781 16.7344C17.5781 16.7344 18.3516 16.1016 18 15.3984C18.1406 15.3984 18.3516 15.3281 18.4922 15.3281C20.1797 15.3281 20.25 16.5937 19.8281 16.875L20.1094 17.2969C19.9687 17.2969 20.7422 16.3125 19.7578 15.4687Z" fill="#C8B100"/>
<path d="M14.6953 14.1328C14.6953 13.9219 14.9063 13.7109 15.1172 13.7109C15.3984 13.7109 15.5391 13.9219 15.5391 14.1328C15.5391 14.3438 15.3281 14.5547 15.1172 14.5547C14.9063 14.5547 14.6953 14.3438 14.6953 14.1328Z" fill="#005BBF"/>
<path d="M14.9766 12.9375V13.1484H14.7656V13.3594H14.9766V14.0625H14.6953V14.2734H15.5391L15.6094 14.1328L15.5391 14.0625H15.2578V13.3594H15.4688V13.1484H15.2578V12.9375H14.9766Z" fill="#C8B100"/>
<path d="M15.1172 19.8984C13.9922 19.8984 13.0078 19.7578 12.2344 19.5469C13.0078 19.3359 13.9922 19.1953 15.1172 19.1953C16.2422 19.1953 17.2266 19.3359 18 19.5469C17.2969 19.7578 16.2422 19.8984 15.1172 19.8984Z" fill="#ED4C5C"/>
<path d="M15.1875 32.0625C13.8516 32.0625 12.5859 31.7109 11.4609 31.2188C10.6172 30.7969 10.125 30.0234 10.125 29.1094V25.7344H20.25V29.1094C20.25 30.0234 19.6875 30.8672 18.9141 31.2188C17.7891 31.7813 16.5234 32.0625 15.1875 32.0625Z" fill="white"/>
<path d="M15.1172 20.1094H20.1797V25.7344H15.1172V20.1094Z" fill="white"/>
<path d="M15.1875 29.1094C15.1875 30.4453 14.0625 31.5 12.6562 31.5C11.25 31.5 10.125 30.4453 10.125 29.1094V25.7344H15.1875V29.1094Z" fill="#ED4C5C"/>
<path d="M11.1797 31.0781C11.3203 31.1484 11.5312 31.2891 11.8125 31.3594V25.5938H11.25L11.1797 31.0781Z" fill="#C8B100"/>
<path d="M10.0547 29.0391C10.0547 29.7422 10.3359 30.3047 10.6172 30.5859V25.5938H10.0547V29.0391Z" fill="#C8B100"/>
<path d="M12.3047 31.5H12.8672V25.5938H12.3047V31.5Z" fill="#C7B500"/>
<path d="M13.4297 31.3594C13.6406 31.2891 13.9219 31.1484 14.0625 31.0781V25.5938H13.5L13.4297 31.3594Z" fill="#C8B100"/>
<path d="M10.0547 20.1094H15.1172V25.7344H10.0547V20.1094Z" fill="#ED4C5C"/>
<path d="M14.625 30.5859C14.9063 30.375 15.1172 29.8828 15.1875 29.3203V25.6641H14.625V30.5859Z" fill="#C8B100"/>
<path d="M20.25 25.7344V29.1094C20.25 30.4453 19.125 31.5 17.7187 31.5C16.3125 31.5 15.1875 30.4453 15.1875 29.1094V25.7344H20.25Z" fill="#ED4C5C"/>
<path d="M18.4219 21.0937C18.6328 21.5156 18.6328 22.5703 18 22.3593C18.1406 22.4296 18.2109 22.9218 18.4219 23.2031C18.7734 23.6249 19.1953 23.2734 19.125 22.7812C18.9844 22.0078 19.0547 21.5156 19.1953 20.7421C19.1953 20.8124 19.5469 20.8124 19.6875 20.6718C19.6172 20.8828 19.5469 21.164 19.6875 21.164C19.5469 21.3749 19.1953 21.7265 19.125 21.9374C19.0547 22.4296 19.8281 23.3437 18.9844 23.5546C18.4219 23.6953 18.7734 24.1171 18.9844 24.3281C18.9844 24.3281 18.7031 25.2421 18.8437 25.1718C18.2812 25.3827 18.4219 24.8906 18.4219 24.8906C18.7031 24.0468 17.9297 23.9765 18 23.8359C17.2969 23.7656 18.0703 24.4687 17.4375 24.4687C17.2969 24.4687 17.0156 24.6093 17.0156 24.6093C16.2422 24.539 16.6641 23.8359 16.9453 23.9062C17.1562 23.9765 17.3672 24.3281 17.3672 23.8359C17.3672 23.8359 17.0156 23.2734 17.9297 23.2734C17.5781 23.2734 17.3672 22.9921 17.2266 22.6406C17.0859 22.7109 16.875 23.0624 16.1016 23.1328C16.1016 23.1328 15.8906 22.3593 16.1016 22.4999C16.3828 22.6406 16.5234 22.6406 16.8047 22.3593C16.6641 22.1484 15.8203 21.8671 15.9609 21.3749C15.9609 21.2343 16.3828 21.0234 16.3828 21.0234C16.3125 21.3749 16.5234 21.7265 16.9453 21.7265C17.5078 21.7968 17.2969 21.5859 17.3672 21.4453C17.4375 21.3046 17.8594 21.5156 17.7187 21.164C17.7187 21.0937 17.2266 21.0234 17.3672 20.8124C17.6484 20.4609 18.0703 20.7421 18.4219 21.0937Z" fill="#ED4C5C"/>
<path d="M15.1875 31.3594L15.0469 31.0078L15.1875 30.5859L15.3281 31.0078L15.1875 31.3594Z" fill="#ED4C5C"/>
<path d="M11.6016 21.3047V21.6562H11.7422V21.9375H11.3906V22.6406H11.6016V24.1875H11.1797V24.9609H14.0625V24.1875H13.7109V22.6406H13.8516V21.9375H13.5V21.6562H13.7109V21.3047H13.0078V21.6562H13.1484V21.9375H12.7969V21.0938H13.0078V20.7422H12.2344V21.0938H12.4453V21.9375H12.0938V21.6562H12.2344V21.3047H11.6016Z" fill="#C8B100"/>
<path d="M19.5469 29.9531V26.4375H15.8906V29.9531L17.5781 30.7266H17.7891L19.5469 29.9531ZM17.5781 26.7188V27.9141L16.3828 26.7188H17.5781ZM16.1016 26.7891L17.5078 28.1953L16.1016 29.6016V26.7891ZM16.2422 29.8828L17.5781 28.5469V30.5156L16.2422 29.8828ZM17.7891 30.4453V28.4766L19.125 29.8125L17.7891 30.4453ZM19.2656 29.6016L17.8594 28.1953L19.2656 26.7891V29.6016ZM17.7891 26.7188H18.9844L17.7891 27.9141V26.7188Z" fill="#C8B100"/>
<path d="M13.5 25.6641C13.5 24.6094 14.2031 23.8359 15.1172 23.8359C16.0313 23.8359 16.7344 24.6797 16.7344 25.6641C16.7344 26.6484 16.0313 27.4922 15.1172 27.4922C14.2031 27.4922 13.5 26.7187 13.5 25.6641Z" fill="#ED4C5C"/>
<path d="M13.9922 25.6641C13.9922 24.8906 14.4844 24.3281 15.1172 24.3281C15.75 24.3281 16.2422 24.9609 16.2422 25.6641C16.2422 26.4375 15.75 27 15.1172 27C14.5547 27.0703 13.9922 26.4375 13.9922 25.6641Z" fill="#005BBF"/>
<path d="M14.625 24.75L14.3438 25.5234L14.5547 25.5937L14.4141 25.875H14.8359L14.6953 25.5937L14.9063 25.5234L14.625 24.75Z" fill="#C8B100"/>
<path d="M15.6797 24.75L15.3984 25.5234L15.6094 25.5937L15.4688 25.875H15.8906L15.8203 25.5937L16.0312 25.5234L15.6797 24.75Z" fill="#C8B100"/>
<path d="M15.1875 25.6641L14.8359 26.4375L15.0469 26.5078L14.9766 26.7891H15.3281L15.2578 26.5078L15.4688 26.4375L15.1875 25.6641Z" fill="#C8B100"/>
</svg>
