<svg width="38" height="38" viewBox="0 0 38 38" fill="none" xmlns="http://www.w3.org/2000/svg">
<g clip-path="url(#clip0)">
<path d="M36.6522 4.09453L28.8349 0.333719C28.3927 0.119523 27.8948 0.0484525 27.4104 0.130393C26.926 0.212333 26.4792 0.44321 26.1321 0.790907L11.1589 14.4531L4.63361 9.50478C4.33974 9.28011 3.97632 9.16573 3.60674 9.18157C3.23716 9.19741 2.88487 9.34248 2.6113 9.59147L0.521299 11.4962C0.357945 11.6438 0.22726 11.824 0.137633 12.0251C0.0480067 12.2262 0.00141869 12.4438 0.000859585 12.664C0.000300484 12.8842 0.0457826 13.102 0.134387 13.3036C0.222991 13.5052 0.352759 13.686 0.515362 13.8344L6.17499 18.9988L0.515362 24.1633C0.352759 24.3117 0.222991 24.4925 0.134387 24.6941C0.0457826 24.8957 0.000300484 25.1135 0.000859585 25.3337C0.00141869 25.5539 0.0480067 25.7715 0.137633 25.9726C0.22726 26.1737 0.357945 26.3538 0.521299 26.5015L2.6113 28.4062C2.88487 28.6552 3.23716 28.8003 3.60674 28.8161C3.97632 28.832 4.33974 28.7176 4.63361 28.4929L11.1589 23.5387L26.1392 37.2068C26.4851 37.5544 26.9309 37.7854 27.4144 37.8673C27.8979 37.9493 28.3949 37.8782 28.8361 37.664L36.6605 33.8972C37.0634 33.7037 37.4033 33.4 37.6408 33.0213C37.8782 32.6426 38.0036 32.2043 38.0024 31.7573V6.23203C38.0024 5.32241 37.4763 4.48759 36.6545 4.09216L36.6522 4.09453ZM28.5059 27.6284L17.138 19L28.5059 10.3717V27.6284Z" fill="white"/>
</g>
<defs>
<clipPath id="clip0">
<rect width="38" height="38" fill="white"/>
</clipPath>
</defs>
</svg>
